# xmcd
#
# Track frame offsets: 
#        150
#        12541
#        24512
#        36932
#        48844
#        59382
#        71695
#        83801
#        93276
#        104949
#        114936
#        126656
#        138303
#        149886
#        159630
#        172695
#        185037
#        194889
#        207792
#        219507
#        232864
#        244647
#        257941
#        267826
#        277815
#        289339
#        301018
#
# Disc length: 4177 seconds
#
# Revision: 0
# Processed by: cddbd v1.5.2PL0 Copyright (c) Steve Scherf et al.
# Submitted via: ExactAudioCopy v0.95b2
#
DISCID=99104f1b
DTITLE=Jerry Butler - The Sweetest Soul
DYEAR=2001
DGENRE=R&B
TTITLE0=He Will Break Your Heart
TTITLE1=Thanks To You
TTITLE2=Find Another Girl
TTITLE3=When Trouble Calls
TTITLE4=I'm A Telling You
TTITLE5=I See A Fool
TTITLE6=For Your Precious Love
TTITLE7=Sweet Was The Wine
TTITLE8=Moon River
TTITLE9=Aware of Love
TTITLE10=Make It Easy On Yourself
TTITLE11=It's Too Late
TTITLE12=You Can Run (But You Can't Hide)
TTITLE13=I'm The One (Who Loves You)
TTITLE14=Where's The Girl
TTITLE15=How Beautifully You Lie
TTITLE16=Woman With Soul
TTITLE17=Need To Belong
TTITLE18=Give Me Your Love
TTITLE19=I've Been Trying
TTITLE20=Giving Up On Love
TTITLE21=I Stand Accused
TTITLE22=Good Times
TTITLE23=Believe In Me
TTITLE24=Just For You
TTITLE25=Give It Up
TTITLE26=For Your Precious Love
EXTD=
EXTT0=
EXTT1=
EXTT2=
EXTT3=
EXTT4=
EXTT5=
EXTT6=
EXTT7=
EXTT8=
EXTT9=
EXTT10=
EXTT11=
EXTT12=
EXTT13=
EXTT14=
EXTT15=
EXTT16=
EXTT17=
EXTT18=
EXTT19=
EXTT20=
EXTT21=
EXTT22=
EXTT23=
EXTT24=
EXTT25=
EXTT26=
PLAYORDER=
